<?xml version="1.0"?>
<svg xmlns="http://www.w3.org/2000/svg" id="Layer_1" data-name="Layer 1" viewBox="0 0 512 512" width="512" height="512"><title>Off Flash</title><path d="M412.62,99.33c86.36,86.36,86.36,226.88,0,313.24a221.5,221.5,0,0,1-313.24,0c-86.36-86.36-86.36-226.88,0-313.24S326.26,12.97,412.62,99.33ZM399.23,375.05A186.287,186.287,0,0,0,136.9,112.73l62.51,62.5,89.6,89.6Zm-24.97,24.84L273.41,299.04l-77.16-77.16-84.19-84.19a186.294,186.294,0,0,0,262.2,262.2Z" style="fill:#00efd1"/><polygon points="319.5 198.36 289.01 264.83 199.41 175.23 203.61 115.24 294.82 115.24 269.06 198.36 319.5 198.36" style="fill:#fedb41"/><polygon points="273.41 299.04 273.25 299.19 228.5 396.76 233.89 273.93 192.5 273.93 196.14 221.99 196.25 221.88 273.41 299.04" style="fill:#fedb41"/></svg>
