<?xml version="1.0" encoding="iso-8859-1"?>
<!-- Generator: Adobe Illustrator 19.0.0, SVG Export Plug-In . SVG Version: 6.00 Build 0)  -->
<svg version="1.1" id="Layer_1" xmlns="http://www.w3.org/2000/svg" xmlns:xlink="http://www.w3.org/1999/xlink" x="0px" y="0px"
	 viewBox="0 0 512 512" style="enable-background:new 0 0 512 512;" xml:space="preserve">
<path style="fill:#0E7886;" d="M256.001,512C397,512,512,397,512,256.001C512,115,397,0,256.001,0C115,0,0,115,0,256.001
	C0,397,115,512,256.001,512z"/>
<path style="fill:#15BDB1;" d="M74.099,92.841h282.601v365.467c0,11.169-9.136,20.307-20.302,20.307H94.847
	c-11.413,0-20.745-9.338-20.745-20.745V92.843L74.099,92.841z"/>
<path style="fill:#ECF0F1;" d="M85.995,87.553h242.228c22.204,0,40.37,18.167,40.37,40.373v305.028
	c0,22.206-18.167,40.373-40.37,40.373H106.297c-11.169,0-20.302-9.138-20.302-20.305V87.555V87.553z"/>
<path style="fill:#FFFFFF;" d="M85.995,83.818h242.228c22.204,0,40.37,18.164,40.37,40.37v305.028
	c0,22.206-18.167,40.373-40.37,40.373H106.297c-11.169,0-20.302-9.138-20.302-20.307V83.815V83.818z"/>
<path style="fill:#ECF0F1;" d="M85.995,64.426h232.032c21.272,0,38.671,17.401,38.671,38.673v308.43
	c0,21.27-17.398,38.671-38.671,38.671H85.995V64.426z"/>
<path style="fill:#15BDB1;" d="M74.099,60.234H316.33c22.201,0,40.37,18.167,40.37,40.37v305.028
	c0,22.206-18.167,40.376-40.37,40.376H74.099V60.234z"/>
<path style="fill:#FBB429;" d="M74.099,60.234h52.232v385.771H74.099V60.234z"/>
<path style="fill:#F5A209;" d="M99.674,78.375c5.784,0,10.471,4.687,10.471,10.471c0,5.778-4.687,10.468-10.471,10.468
	c-5.778,0-10.468-4.69-10.468-10.468C89.205,83.062,93.893,78.375,99.674,78.375z"/>
<path style="fill:#FFFFFF;" d="M68.305,85.793h28.719c1.988,0,3.614,1.626,3.614,3.617s-1.626,3.617-3.614,3.617H68.305
	c-1.988,0-3.614-1.626-3.614-3.617S66.317,85.793,68.305,85.793z"/>
<path style="fill:#F5A209;" d="M99.674,109.935c5.784,0,10.471,4.687,10.471,10.468s-4.687,10.468-10.471,10.468
	c-5.778,0-10.468-4.69-10.468-10.468C89.205,114.619,93.893,109.935,99.674,109.935z"/>
<path style="fill:#FFFFFF;" d="M68.305,117.35h28.719c1.988,0,3.614,1.626,3.614,3.617s-1.626,3.617-3.614,3.617H68.305
	c-1.988,0-3.614-1.626-3.614-3.617S66.317,117.35,68.305,117.35z"/>
<path style="fill:#F5A209;" d="M99.674,141.489c5.784,0,10.471,4.687,10.471,10.471c0,5.781-4.687,10.468-10.471,10.468
	c-5.778,0-10.468-4.69-10.468-10.468C89.205,146.177,93.893,141.489,99.674,141.489z"/>
<path style="fill:#FFFFFF;" d="M68.305,148.91h28.719c1.988,0,3.614,1.624,3.614,3.614c0,1.991-1.626,3.614-3.614,3.614H68.305
	c-1.988,0-3.614-1.626-3.614-3.614C64.691,150.533,66.317,148.91,68.305,148.91z"/>
<path style="fill:#F5A209;" d="M99.674,173.047c5.784,0,10.471,4.69,10.471,10.471c0,5.781-4.687,10.468-10.471,10.468
	c-5.778,0-10.468-4.69-10.468-10.468C89.205,177.736,93.893,173.047,99.674,173.047z"/>
<path style="fill:#FFFFFF;" d="M68.305,180.467h28.719c1.988,0,3.614,1.626,3.614,3.614c0,1.991-1.626,3.614-3.614,3.614H68.305
	c-1.988,0-3.614-1.626-3.614-3.614C64.691,182.091,66.317,180.467,68.305,180.467z"/>
<path style="fill:#F5A209;" d="M99.674,204.604c5.784,0,10.471,4.69,10.471,10.471c0,5.781-4.687,10.468-10.471,10.468
	c-5.778,0-10.468-4.687-10.468-10.468C89.205,209.294,93.893,204.604,99.674,204.604z"/>
<path style="fill:#FFFFFF;" d="M68.305,212.024h28.719c1.988,0,3.614,1.626,3.614,3.614c0,1.991-1.626,3.614-3.614,3.614H68.305
	c-1.988,0-3.614-1.626-3.614-3.614C64.691,213.648,66.317,212.024,68.305,212.024z"/>
<path style="fill:#F5A209;" d="M99.674,236.164c5.784,0,10.471,4.687,10.471,10.471c0,5.781-4.687,10.468-10.471,10.468
	c-5.778,0-10.468-4.687-10.468-10.468C89.205,240.851,93.893,236.164,99.674,236.164z"/>
<path style="fill:#FFFFFF;" d="M68.305,243.579h28.719c1.988,0,3.614,1.626,3.614,3.617c0,1.991-1.626,3.614-3.614,3.614H68.305
	c-1.988,0-3.614-1.626-3.614-3.614C64.691,245.205,66.317,243.579,68.305,243.579z"/>
<path style="fill:#F5A209;" d="M99.674,267.721c5.784,0,10.471,4.687,10.471,10.471c0,5.778-4.687,10.468-10.471,10.468
	c-5.778,0-10.468-4.687-10.468-10.468C89.205,272.408,93.893,267.721,99.674,267.721z"/>
<path style="fill:#FFFFFF;" d="M68.305,275.136h28.719c1.988,0,3.614,1.626,3.614,3.617c0,1.991-1.626,3.614-3.614,3.614H68.305
	c-1.988,0-3.614-1.626-3.614-3.614C64.691,276.762,66.317,275.136,68.305,275.136z"/>
<path style="fill:#F5A209;" d="M99.674,299.278c5.784,0,10.471,4.687,10.471,10.468s-4.687,10.471-10.471,10.471
	c-5.778,0-10.468-4.69-10.468-10.471S93.893,299.278,99.674,299.278z"/>
<path style="fill:#FFFFFF;" d="M68.305,306.693h28.719c1.988,0,3.614,1.626,3.614,3.617s-1.626,3.617-3.614,3.617H68.305
	c-1.988,0-3.614-1.626-3.614-3.617S66.317,306.693,68.305,306.693z"/>
<path style="fill:#F5A209;" d="M99.674,330.833c5.784,0,10.471,4.69,10.471,10.471c0,5.781-4.687,10.471-10.471,10.471
	c-5.778,0-10.468-4.69-10.468-10.471C89.205,335.523,93.893,330.833,99.674,330.833z"/>
<path style="fill:#FFFFFF;" d="M68.305,338.25h28.719c1.988,0,3.614,1.626,3.614,3.615c0,1.991-1.626,3.617-3.614,3.617H68.305
	c-1.988,0-3.614-1.626-3.614-3.617S66.317,338.25,68.305,338.25z"/>
<path style="fill:#F5A209;" d="M99.674,362.39c5.784,0,10.471,4.69,10.471,10.471s-4.687,10.471-10.471,10.471
	c-5.778,0-10.468-4.69-10.468-10.471S93.893,362.39,99.674,362.39z"/>
<path style="fill:#FFFFFF;" d="M68.305,369.81h28.719c1.988,0,3.614,1.626,3.614,3.614c0,1.991-1.626,3.617-3.614,3.617H68.305
	c-1.988,0-3.614-1.626-3.614-3.617C64.691,371.437,66.317,369.81,68.305,369.81z"/>
<path style="fill:#F5A209;" d="M99.674,393.947c5.784,0,10.471,4.69,10.471,10.471c0,5.781-4.687,10.471-10.471,10.471
	c-5.778,0-10.468-4.69-10.468-10.471C89.205,398.634,93.893,393.947,99.674,393.947z"/>
<path style="fill:#FFFFFF;" d="M68.305,401.367h28.719c1.988,0,3.614,1.626,3.614,3.617s-1.626,3.614-3.614,3.614H68.305
	c-1.988,0-3.614-1.626-3.614-3.614C64.691,402.994,66.317,401.367,68.305,401.367z"/>
<path style="fill:#20D0C2;" d="M405.779,302.906h30.547V39.164h-30.547V302.906z"/>
<path style="fill:#15BDB1;" d="M436.327,151.268v-7.622l-30.547-0.05v7.622l30.547,0.052V151.268z"/>
<path style="fill:#FF5B61;" d="M426.795,338.025l9.529-35.117h-30.547l9.626,35.117h11.389H426.795z"/>
<path style="fill:#EC4B53;" d="M426.797,337.988l9.527-35.082h-6.623l-5.11,35.117l2.203-0.034H426.797z"/>
<path style="fill:#FF5B61;" d="M412.048,13.424h18.007c4.952,0,9.002,4.422,9.002,9.82v122.609h-36.014V23.245
	c0-5.401,4.05-9.82,9.002-9.82H412.048z"/>
<path style="fill:#EC4B53;" d="M435.826,23.242v15.922l-0.003,39.156v67.534h0.504h2.731V80.216V23.245
	c0-5.398-4.053-9.82-9.005-9.82h-0.855c3.827,1.314,6.623,5.228,6.626,9.818H435.826z"/>
<path style="fill:#FFFFFF;" d="M420.442,363.145h1.272l5.081-25.12h-11.389l5.039,25.12H420.442z"/>
<path style="fill:#ECF0F1;" d="M403.036,39.744l42.109,0.247c1.422,0.199,2.159,0.989,2.161,2.353v71.219l-0.399,1.348l-3.253,5.07
	c-1.668,2.353-5.144,0.548-3.541-2.696l2.856-4.451V44.685l-39.948-0.231l0.016-4.711H403.036z"/>
<path style="fill:#15BDB1;" d="M433.796,302.906h2.531V151.26h-2.531V302.906z"/>
<g>
</g>
<g>
</g>
<g>
</g>
<g>
</g>
<g>
</g>
<g>
</g>
<g>
</g>
<g>
</g>
<g>
</g>
<g>
</g>
<g>
</g>
<g>
</g>
<g>
</g>
<g>
</g>
<g>
</g>
</svg>
