<?xml version="1.0" encoding="iso-8859-1"?>
<!-- Generator: Adobe Illustrator 19.0.0, SVG Export Plug-In . SVG Version: 6.00 Build 0)  -->
<svg xmlns="http://www.w3.org/2000/svg" xmlns:xlink="http://www.w3.org/1999/xlink" version="1.1" id="Layer_1" x="0px" y="0px" viewBox="0 0 497 497" style="enable-background:new 0 0 497 497;" xml:space="preserve" width="512" height="512">
<g>
	<g>
		<path style="fill:#485C70;" d="M408.324,392.679h-61.478v-35.425h61.478c24.258,0,43.992-19.735,43.992-43.992V256.21    c0-20.37-16.573-36.942-36.943-36.942v-35.425c39.903,0,72.367,32.464,72.367,72.367v57.053    C487.741,357.053,452.115,392.679,408.324,392.679z"/>
	</g>
	<g>
		<path style="fill:#D5EBF6;" d="M440.339,158.272l-35.425,7.521v-56.458c0-9.33-7.591-16.921-16.921-16.921h-41.147V56.989h41.147    c28.864,0,52.345,23.482,52.345,52.346V158.272z"/>
	</g>
	<path style="fill:#A6C1D8;" d="M428.292,116.225h-23.378v49.568l35.425-7.521v-40.279   C436.52,116.848,432.479,116.225,428.292,116.225z"/>
	<path style="fill:#FFCA5E;" d="M428.292,146.225h-58.723v118.757h21.292c27.326,0,49.478-22.152,49.478-49.478v-57.232   C440.339,151.619,434.945,146.225,428.292,146.225z"/>
	<rect x="346.846" y="357.255" style="fill:#334151;" width="52.723" height="35.425"/>
	<path style="fill:#00C5A3;" d="M306.485,0h-204.62c-34.84,0-63.083,28.243-63.083,63.083v399.719h330.787V63.083   C369.569,28.243,341.325,0,306.485,0z"/>
	<path style="fill:#60DAA8;" d="M79.267,179.405V63.084c0-12.461,10.138-22.598,22.598-22.598h204.62   c12.461,0,22.598,10.138,22.598,22.598v116.322H79.267z"/>
	<g>
		<g>
			<path style="fill:#334151;" d="M136.754,117.595c-4.142,0-7.5-3.358-7.5-7.5V97.893c0-4.142,3.358-7.5,7.5-7.5s7.5,3.358,7.5,7.5     v12.202C144.254,114.237,140.896,117.595,136.754,117.595z"/>
		</g>
		<g>
			<path style="fill:#334151;" d="M271.597,117.595c-4.142,0-7.5-3.358-7.5-7.5V97.893c0-4.142,3.358-7.5,7.5-7.5s7.5,3.358,7.5,7.5     v12.202C279.097,114.237,275.739,117.595,271.597,117.595z"/>
		</g>
		<g>
			<path style="fill:#334151;" d="M204.175,124.109c-8.649,0-16.773-3.618-22.288-9.927c-2.726-3.119-2.408-7.857,0.711-10.583     c3.119-2.726,7.857-2.408,10.583,0.711c2.666,3.05,6.673,4.799,10.994,4.799s8.328-1.749,10.994-4.798     c2.727-3.12,7.464-3.437,10.583-0.71c3.119,2.726,3.437,7.464,0.71,10.583C220.948,120.491,212.824,124.109,204.175,124.109z"/>
		</g>
	</g>
	<path style="fill:#F9EE80;" d="M258.323,227.303c2.085-3.34-0.317-7.67-4.254-7.67h-58.974c-6.152,0-11.684,3.745-13.969,9.456   l-31.502,69.917c-1.318,3.294,1.108,6.878,4.656,6.878h28.658c2.7,0,4.577,2.684,3.652,5.22l-30.115,79.261   c-0.828,2.269,2.055,4.038,3.703,2.272l95.508-97.821c2.992-3.205,0.719-8.436-3.666-8.436h-23.56   c-3.052,0-4.914-3.356-3.298-5.946L258.323,227.303z"/>
	<path style="fill:#D5EBF6;" d="M369.569,428.604H38.782c-16.305,0-29.522,13.218-29.522,29.522V478.1   c0,10.438,8.462,18.9,18.9,18.9h352.032c10.438,0,18.9-8.462,18.9-18.9v-19.974C399.091,441.822,385.873,428.604,369.569,428.604z"/>
</g>















</svg>
