<?xml version="1.0" encoding="iso-8859-1"?>
<!-- Generator: Adobe Illustrator 19.0.0, SVG Export Plug-In . SVG Version: 6.00 Build 0)  -->
<svg version="1.1" id="Capa_1" xmlns="http://www.w3.org/2000/svg" xmlns:xlink="http://www.w3.org/1999/xlink" x="0px" y="0px"
	 viewBox="0 0 512 512" style="enable-background:new 0 0 512 512;" xml:space="preserve">
<circle style="fill:#3997EE;" cx="256" cy="256" r="256"/>
<path style="fill:#647892;" d="M256,512c57.88,0,111.267-19.218,154.147-51.608H101.853C144.733,492.782,198.12,512,256,512z"/>
<path style="fill:#4D6682;" d="M225.691,460.392H101.853c34.777,26.27,76.465,43.872,121.856,49.588
	C205.042,499.383,206.313,469.529,225.691,460.392z"/>
<path style="fill:#EFEFEF;" d="M171.219,213.766H91.792l10.19-153.75c0.147-2.217,1.988-3.94,4.21-3.94h50.188
	c2.469,0,4.515,1.915,4.679,4.379L171.219,213.766z"/>
<g>
	<path style="fill:#DDDDDD;" d="M134.288,56.076h-28.097c-2.222,0-4.063,1.723-4.21,3.94l-10.19,153.75h36.333l4.362-153.75
		C132.549,57.799,133.337,56.076,134.288,56.076z"/>
	<path style="fill:#DDDDDD;" d="M162.365,88.017h-61.72c-4.329,0-7.838-3.509-7.838-7.838c0-4.329,3.509-7.838,7.838-7.838h61.72
		c4.329,0,7.838,3.509,7.838,7.838C170.203,84.508,166.694,88.017,162.365,88.017z"/>
</g>
<path style="fill:#CECCCA;" d="M123.641,80.179c0-4.33,3.509-7.838,7.838-7.838h-30.833c-4.329,0-7.838,3.509-7.838,7.838
	c0,4.329,3.509,7.838,7.838,7.838h30.833C127.15,88.017,123.641,84.508,123.641,80.179z"/>
<polygon style="fill:#45DB73;" points="93.348,190.288 167.03,150.562 163.991,104.709 96.612,141.036 "/>
<polygon style="fill:#32CC65;" points="130.709,122.652 96.612,141.036 93.348,190.288 129.341,170.883 "/>
<path style="fill:#647892;" d="M180.992,211.676H82.019c-5.082,0-9.202,4.12-9.202,9.202v47.534h117.376v-47.534
	C190.193,215.795,186.074,211.676,180.992,211.676z"/>
<path style="fill:#4D6682;" d="M128.345,211.676H82.019c-5.082,0-9.202,4.12-9.202,9.202v47.535h46.326v-47.535
	C119.143,215.795,123.263,211.676,128.345,211.676z"/>
<path style="fill:#8C9DAD;" d="M190.193,247.001H72.817c-4.329,0-7.838-3.509-7.838-7.838s3.509-7.838,7.838-7.838h117.376
	c4.329,0,7.838,3.509,7.838,7.838C198.031,243.492,194.522,247.001,190.193,247.001z"/>
<path style="fill:#7389A0;" d="M109.693,239.163c0-4.33,3.509-7.838,7.838-7.838H72.817c-4.329,0-7.838,3.509-7.838,7.838
	s3.509,7.838,7.838,7.838h44.714C113.202,247.001,109.693,243.492,109.693,239.163z"/>
<g>
	<path style="fill:#DDDDDD;" d="M303.201,313.327h-80.635V210.335c0-6.701,7.695-10.483,13.001-6.389l67.635,50.583v58.798H303.201z
		"/>
	<path style="fill:#DDDDDD;" d="M381.746,313.327h-80.635V209.955c0-6.546,7.517-10.241,12.7-6.241l67.935,50.814V313.327z"/>
	<path style="fill:#DDDDDD;" d="M460.291,313.327h-80.635V209.463c0-6.346,7.287-9.927,12.311-6.05l65.237,48.732
		c1.947,1.503,3.088,3.824,3.088,6.283v54.899H460.291z"/>
</g>
<g>
	<path style="fill:#CECCCA;" d="M235.567,203.946c-5.305-4.094-13.001-0.313-13.001,6.389v102.993h54v-78.719L235.567,203.946z"/>
	<path style="fill:#CECCCA;" d="M313.811,203.714c-5.183-4-12.7-0.305-12.7,6.241v103.372h54v-78.722L313.811,203.714z"/>
	<path style="fill:#CECCCA;" d="M391.967,203.413c-5.024-3.877-12.311-0.296-12.311,6.05v103.864h54v-78.772L391.967,203.413z"/>
</g>
<path style="fill:#45DB73;" d="M215.144,266.322H47.866c-4.099,0-7.421,3.323-7.421,7.421v120.411
	c11.481,17.876,25.135,34.221,40.573,48.685h141.549V273.743C222.566,269.644,219.243,266.322,215.144,266.322z"/>
<path style="fill:#32CC65;" d="M89.545,266.322H47.866c-4.099,0-7.421,3.323-7.421,7.421v120.411
	c11.481,17.876,25.135,34.221,40.573,48.685h1.106V273.743C82.123,269.644,85.446,266.322,89.545,266.322z"/>
<path style="fill:#EFEFEF;" d="M471.836,313.327h-249.27v129.512h208.416c15.564-14.583,29.314-31.077,40.854-49.125V313.327z"/>
<g>
	<rect x="222.57" y="313.33" style="fill:#DDDDDD;" width="72.77" height="129.51"/>
	<rect x="258.22" y="411.75" style="fill:#DDDDDD;" width="177.97" height="31.09"/>
</g>
<g>
	<rect x="258.22" y="411.75" style="fill:#CECCCA;" width="37.12" height="31.09"/>
	<rect x="258.22" y="380.66" style="fill:#CECCCA;" width="177.97" height="31.09"/>
</g>
<rect x="258.22" y="380.66" style="fill:#BFBEBE;" width="37.12" height="31.09"/>
<path style="fill:#DDDDDD;" d="M436.185,380.661H258.218v-27.309c0-2.088,1.692-3.78,3.78-3.78h170.014
	c2.305,0,4.173,1.868,4.173,4.173V380.661z"/>
<path style="fill:#CECCCA;" d="M295.339,349.572h-33.341c-2.088,0-3.78,1.692-3.78,3.78v27.309h37.121V349.572z"/>
<g>
	<path style="fill:#23B658;" d="M86.385,312.319h-8.522c-4.329,0-7.838-3.509-7.838-7.838s3.509-7.838,7.838-7.838h8.522
		c4.329,0,7.838,3.509,7.838,7.838S90.714,312.319,86.385,312.319z"/>
	<path style="fill:#23B658;" d="M135.504,312.319h-8.522c-4.329,0-7.838-3.509-7.838-7.838s3.509-7.838,7.838-7.838h8.522
		c4.329,0,7.838,3.509,7.838,7.838S139.833,312.319,135.504,312.319z"/>
	<path style="fill:#23B658;" d="M184.623,312.319H176.1c-4.329,0-7.838-3.509-7.838-7.838s3.509-7.838,7.838-7.838h8.523
		c4.329,0,7.838,3.509,7.838,7.838S188.952,312.319,184.623,312.319z"/>
	<path style="fill:#23B658;" d="M86.385,346.052h-8.522c-4.329,0-7.838-3.509-7.838-7.838s3.509-7.838,7.838-7.838h8.522
		c4.329,0,7.838,3.509,7.838,7.838S90.714,346.052,86.385,346.052z"/>
	<path style="fill:#23B658;" d="M135.504,346.052h-8.522c-4.329,0-7.838-3.509-7.838-7.838s3.509-7.838,7.838-7.838h8.522
		c4.329,0,7.838,3.509,7.838,7.838S139.833,346.052,135.504,346.052z"/>
	<path style="fill:#23B658;" d="M184.623,346.052H176.1c-4.329,0-7.838-3.509-7.838-7.838s3.509-7.838,7.838-7.838h8.523
		c4.329,0,7.838,3.509,7.838,7.838S188.952,346.052,184.623,346.052z"/>
	<path style="fill:#23B658;" d="M86.385,379.784h-8.522c-4.329,0-7.838-3.509-7.838-7.838s3.509-7.838,7.838-7.838h8.522
		c4.329,0,7.838,3.509,7.838,7.838C94.223,376.276,90.714,379.784,86.385,379.784z"/>
	<path style="fill:#23B658;" d="M135.504,379.784h-8.522c-4.329,0-7.838-3.509-7.838-7.838s3.509-7.838,7.838-7.838h8.522
		c4.329,0,7.838,3.509,7.838,7.838C143.342,376.276,139.833,379.784,135.504,379.784z"/>
	<path style="fill:#23B658;" d="M184.623,379.784H176.1c-4.329,0-7.838-3.509-7.838-7.838s3.509-7.838,7.838-7.838h8.523
		c4.329,0,7.838,3.509,7.838,7.838C192.461,376.276,188.952,379.784,184.623,379.784z"/>
	<path style="fill:#23B658;" d="M86.385,413.518h-8.522c-4.329,0-7.838-3.509-7.838-7.838s3.509-7.838,7.838-7.838h8.522
		c4.329,0,7.838,3.509,7.838,7.838S90.714,413.518,86.385,413.518z"/>
	<path style="fill:#23B658;" d="M135.504,413.518h-8.522c-4.329,0-7.838-3.509-7.838-7.838s3.509-7.838,7.838-7.838h8.522
		c4.329,0,7.838,3.509,7.838,7.838S139.833,413.518,135.504,413.518z"/>
	<path style="fill:#23B658;" d="M184.623,413.518H176.1c-4.329,0-7.838-3.509-7.838-7.838s3.509-7.838,7.838-7.838h8.523
		c4.329,0,7.838,3.509,7.838,7.838S188.952,413.518,184.623,413.518z"/>
</g>
<path style="fill:#ABE84B;" d="M250.138,47.623c-21.858,0-39.868-15.664-57.989-21.46c-17.496-5.598-30.445-2.182-47.781,12.6
	c-3.294,2.808-8.241,2.416-11.05-0.879c-2.809-3.293-2.415-8.241,0.879-11.05c52.129-44.446,83.639,3.507,114.449,5.074
	c10.685,0.555,21.597-4.797,29.943-14.649c2.798-3.303,7.744-3.71,11.047-0.913c3.303,2.798,3.712,7.745,0.913,11.048
	C279.581,40.339,264.965,47.621,250.138,47.623z"/>
<path style="fill:#EFEFEF;" d="M432.105,441.794H79.895c11.338,10.75,23.662,20.468,36.818,29.016h278.574
	C408.443,462.262,420.767,452.544,432.105,441.794z"/>
<path style="fill:#DDDDDD;" d="M206.458,456.302c0-6.117,3.213-11.472,8.034-14.508H79.895
	c11.338,10.75,23.662,20.468,36.818,29.016h97.779C209.671,467.774,206.458,462.419,206.458,456.302z"/>
<g>
	<path style="fill:#57A7FF;" d="M405.01,47.825h-40.109c-6.973,0-12.625,5.652-12.625,12.625s5.652,12.625,12.625,12.625h19.618
		c6.973,0,12.625,5.652,12.625,12.625c0,6.972-5.652,12.624-12.625,12.624c-9.953,0-52.266,0-60.987,0
		c-6.973,0-12.625,5.653-12.625,12.626c0,6.972,5.652,12.625,12.625,12.625c14.121,0,38.68,0,43.432,0
		c6.973,0,12.625,5.652,12.625,12.624c0,6.973-5.652,12.625-12.625,12.625h-5.317c-6.972,0-12.625,5.653-12.625,12.625
		s5.653,12.625,12.625,12.625h136.961C481.291,122.775,448.156,78.764,405.01,47.825z"/>
	<path style="fill:#57A7FF;" d="M67.228,163.932H17.072c-9.156,23.745-14.869,49.197-16.54,75.75h42.586
		c6.972,0,12.625-5.652,12.625-12.625s-5.652-12.625-12.625-12.625h-9.235c-6.973,0-12.625-5.652-12.625-12.625
		c0-6.972,5.652-12.625,12.625-12.625h33.345c6.973,0,12.625-5.652,12.625-12.625C79.853,169.585,74.2,163.932,67.228,163.932z"/>
	<path style="fill:#57A7FF;" d="M281.481,123.575h-18.814c-6.973,0-12.625-5.652-12.625-12.625s5.652-12.625,12.625-12.625h18.814
		c6.973,0,12.625,5.652,12.625,12.625C294.106,117.922,288.454,123.575,281.481,123.575z"/>
</g>
<g>
</g>
<g>
</g>
<g>
</g>
<g>
</g>
<g>
</g>
<g>
</g>
<g>
</g>
<g>
</g>
<g>
</g>
<g>
</g>
<g>
</g>
<g>
</g>
<g>
</g>
<g>
</g>
<g>
</g>
</svg>
