<?xml version="1.0" encoding="iso-8859-1"?>
<!-- Generator: Adobe Illustrator 19.0.0, SVG Export Plug-In . SVG Version: 6.00 Build 0)  -->
<svg version="1.1" id="Capa_1" xmlns="http://www.w3.org/2000/svg" xmlns:xlink="http://www.w3.org/1999/xlink" x="0px" y="0px"
	 viewBox="0 0 464 464" style="enable-background:new 0 0 464 464;" xml:space="preserve">
<path style="fill:#87CED9;" d="M336.928,211.999H189.376c-13.608-0.001-26.576,5.774-35.68,15.888L96,291.999h328l-49.6-61.984
	C365.293,218.631,351.506,212.002,336.928,211.999L336.928,211.999z"/>
<path style="fill:#77A226;" d="M96,291.999l-69.264,11.544C11.306,306.116-0.002,319.468,0,335.111v52.888h464v-64
	c0-17.673-14.327-32-32-32H96z"/>
<path style="fill:#618C20;" d="M240,331.999h-32c-4.418,0-8-3.582-8-8s3.582-8,8-8h32c4.418,0,8,3.582,8,8
	S244.418,331.999,240,331.999z"/>
<path style="fill:#78C3CF;" d="M374.4,230.015c-9.107-11.384-22.894-18.013-37.472-18.016H312l-80,80h192L374.4,230.015z"/>
<path style="fill:#59B3C2;" d="M264,211.999h16v80h-16V211.999z"/>
<g>
	<path style="fill:#88B337;" d="M368,35.999h48l0,0v48c0,53.019-42.981,96-96,96h-48l0,0v-48C272,78.98,314.981,35.999,368,35.999z"
		/>
	<path style="fill:#88B337;" d="M240,179.999h32v-24c0-53.019-42.981-96-96-96h-32v24C144,137.018,186.981,179.999,240,179.999z"/>
</g>
<g>
	<path style="fill:#618C20;" d="M264,171.999h16v40h-16V171.999z"/>
	<path style="fill:#618C20;" d="M421.656,30.343c-3.124-3.123-8.188-3.123-11.312,0l-55.648,55.648L337,43.703
		c-1.581-4.126-6.207-6.189-10.332-4.609c-4.126,1.581-6.189,6.207-4.609,10.332c0.074,0.194,0.156,0.385,0.245,0.572l20.216,48.168
		l-27.824,27.824L296,81.703c-1.897-3.99-6.669-5.688-10.66-3.791c-3.773,1.793-5.531,6.187-4.036,10.087l21.216,50.168
		l-30.696,30.696l-55.912-52.416c0-0.16,0.088-0.288,0.088-0.448l0.496-45.504c0-4.418-3.582-8-8-8s-8,3.582-8,8L200,101.535
		l-48.688-44.904c-3.223-3.024-8.288-2.863-11.312,0.36s-2.863,8.288,0.36,11.312l0,0l72.312,67.04l-36.112,12
		c-4.197,1.398-6.466,5.935-5.068,10.132c1.398,4.197,5.935,6.466,10.132,5.068l0,0l44.312-14.768l40.592,38.048
		c0.508,0.421,1.067,0.776,1.664,1.056c0.277,0.197,0.565,0.376,0.864,0.536c1.929,0.784,4.092,0.767,6.008-0.048
		c0.298-0.173,0.587-0.363,0.864-0.568c0.625-0.306,1.206-0.693,1.728-1.152l61.28-61.28l68.184,7.576
		c0.292,0.034,0.586,0.053,0.88,0.056c4.418-0.006,7.995-3.593,7.989-8.011c-0.006-4.075-3.074-7.495-7.125-7.941l-55.448-6.16
		l68.224-68.232C424.767,38.536,424.775,33.472,421.656,30.343L421.656,30.343z"/>
</g>
<path style="fill:#6A9923;" d="M0,347.999h464v40H0V347.999z"/>
<circle style="fill:#595959;" cx="96" cy="387.999" r="48"/>
<circle style="fill:#CFCFCF;" cx="95.608" cy="389.359" r="15.12"/>
<circle style="fill:#595959;" cx="384" cy="387.999" r="48"/>
<circle style="fill:#CFCFCF;" cx="383.608" cy="389.359" r="15.12"/>
<path style="fill:#618C20;" d="M264,291.999h16v96h-16V291.999z"/>
<g>
</g>
<g>
</g>
<g>
</g>
<g>
</g>
<g>
</g>
<g>
</g>
<g>
</g>
<g>
</g>
<g>
</g>
<g>
</g>
<g>
</g>
<g>
</g>
<g>
</g>
<g>
</g>
<g>
</g>
</svg>
