<svg height="512pt" viewBox="-46 0 512 512" width="512pt" xmlns="http://www.w3.org/2000/svg"><path d="m210 512c-5.683594 0-10.875-3.210938-13.417969-8.292969l-46.140625-92.28125c-88.921875-26.214843-150.441406-108.066406-150.441406-201.425781 0-115.792969 94.207031-210 210-210s210 94.207031 210 210c0 93.363281-61.519531 175.214844-150.445312 201.429688l-46.140626 92.277343c-2.539062 5.082031-7.734374 8.292969-13.414062 8.292969zm0 0" fill="#ff415b"/><path d="m210 0c-.042969 0-.082031.00390625-.125.00390625v511.99218775c.042969 0 .082031.003906.125.003906 5.679688 0 10.875-3.210938 13.414062-8.292969l46.140626-92.277343c88.925781-26.214844 150.445312-108.066407 150.445312-201.429688 0-115.792969-94.207031-210-210-210zm0 0" fill="#b20042"/><path d="m210 265c-25.191406 0-48.796875 73.0625-69 61-39.496094-23.582031-66-66.753906-66-116 0-74.4375 60.5625-135 135-135s135 60.5625 135 135c0 50.484375-27.855469 94.582031-69 117.738281-19.523438 10.988281-42.042969-62.738281-66-62.738281zm0 0" fill="#f3eee9"/><path d="m210 75c-.042969 0-.082031.003906-.125.003906v190.003906c.042969 0 .082031-.007812.125-.007812 23.957031 0 46.476562 73.726562 66 62.738281 41.144531-23.15625 69-67.253906 69-117.738281 0-74.4375-60.5625-135-135-135zm0 0" fill="#e9dfda"/><path d="m210 210c-24.8125 0-45-20.1875-45-45s20.1875-45 45-45 45 20.1875 45 45-20.1875 45-45 45zm0 0" fill="#fdd1a3"/><path d="m209.261719 240.003906c-41.289063.398438-74.261719 34.660156-74.261719 75.953125 0 3.992188 2.097656 7.6875 5.519531 9.746094 20.308594 12.246094 44.085938 19.296875 69.480469 19.296875s49.171875-7.050781 69.480469-19.296875c3.421875-2.058594 5.519531-5.753906 5.519531-9.746094v-.957031c0-41.601562-34.046875-75.398438-75.738281-74.996094zm0 0" fill="#3aaaff"/><path d="m210 120c-.042969 0-.082031.003906-.125.003906v89.992188c.042969 0 .082031.003906.125.003906 24.8125 0 45-20.1875 45-45s-20.1875-45-45-45zm0 0" fill="#ffbb85"/><path d="m209.875 240.011719v104.984375c.042969 0 .082031.003906.125.003906 25.394531 0 49.171875-7.054688 69.480469-19.296875 3.421875-2.058594 5.519531-5.753906 5.519531-9.746094v-.957031c0-41.394531-33.714844-75.054688-75.125-74.988281zm0 0" fill="#008adf"/></svg>