<?xml version="1.0" encoding="iso-8859-1"?>
<!-- Generator: Adobe Illustrator 19.0.0, SVG Export Plug-In . SVG Version: 6.00 Build 0)  -->
<svg version="1.1" id="Capa_1" xmlns="http://www.w3.org/2000/svg" xmlns:xlink="http://www.w3.org/1999/xlink" x="0px" y="0px"
	 viewBox="0 0 512 512" style="enable-background:new 0 0 512 512;" xml:space="preserve">
<circle style="fill:#F7F7F7;" cx="255.998" cy="255.999" r="255.998"/>
<g>
	<path style="fill:#FCF8F2;" d="M503.547,190.58H368.672c-8.37,0-15.935-3.396-21.42-8.882c-5.486-5.475-8.882-13.061-8.882-21.42
		c0-16.739,13.573-30.302,30.302-30.302h18.808c16.739,0,30.302-13.573,30.302-30.302c0-11.87,6.823-22.152,16.771-27.115
		C467.31,104.439,491.552,145.023,503.547,190.58z"/>
	<path style="fill:#FCF8F2;" d="M324.39,131.941c0,16.739-13.563,30.302-30.302,30.302H117.031c-8.37,0-15.945-3.385-21.431-8.871
		c-5.486-5.486-8.871-13.061-8.871-21.431c0-16.739-13.563-30.302-30.302-30.302h-4.66C98.495,39.896,172.588,0.002,256.002,0.002
		c8.662,0,17.209,0.428,25.652,1.264c0.982,2.978,1.515,6.165,1.515,9.467c0,16.739-13.563,30.302-30.302,30.302h-18.808
		c-16.739,0-30.302,13.563-30.302,30.302s13.563,30.302,30.302,30.302h60.029c8.37,0,15.945,3.385,21.431,8.871
		C320.994,115.995,324.39,123.571,324.39,131.941z"/>
</g>
<path style="fill:#3FCDE0;" d="M145.243,235.385H91.345c-49.79,0-90.297-40.507-90.297-90.297S41.555,54.79,91.345,54.79h260.786
	v20.898H91.345c-38.267,0-69.4,31.133-69.4,69.4s31.133,69.4,69.4,69.4h53.898L145.243,235.385L145.243,235.385z"/>
<path style="fill:#5C5E70;" d="M512,256.001c0,47.752-13.082,92.462-35.84,130.726c-2.414,4.054-4.942,8.046-7.565,11.954
	c-2.685,3.981-5.486,7.899-8.391,11.724c-3.981,5.277-8.181,10.397-12.56,15.339c-11.18,12.601-23.583,24.095-37.021,34.293
	c-42.955,32.611-96.527,51.962-154.623,51.962s-111.668-19.351-154.623-51.962c-13.437-10.198-25.84-21.692-37.021-34.293
	c-4.378-4.942-8.568-10.052-12.56-15.329c-2.905-3.824-5.695-7.743-8.38-11.734c-2.633-3.908-5.151-7.899-7.575-11.954
	C13.085,348.463,0.003,303.752,0.003,256c0-3.051,0.052-6.092,0.167-9.122h511.663C511.948,249.909,512,252.949,512,256.001z"/>
<g>
	<path style="fill:#494B5B;" d="M135.599,399.558v48.807c0,6.447-5.224,11.671-11.671,11.671h-22.549
		c-13.437-10.198-25.84-21.692-37.021-34.293v-26.185H135.599z"/>
	<path style="fill:#494B5B;" d="M447.645,399.558v26.185c-11.18,12.601-23.583,24.095-37.021,34.293h-22.549
		c-6.447,0-11.671-5.224-11.671-11.671v-48.807H447.645z"/>
</g>
<path style="fill:#3FBD77;" d="M464.931,311.798v63.431c-0.036-0.018-0.072-0.018-0.108-0.027
	c-3.989,12.254-9.036,24.024-15.024,35.22H62.201c-2.913-5.45-5.612-11.043-8.068-16.763c-2.59-6.015-4.912-12.173-6.956-18.457
	c-0.036,0.009-0.072,0.009-0.108,0.027v-63.431c0-8.633,2.214-16.978,6.275-24.311c3.694-6.697,8.919-12.559,15.391-17.041
	l20.51-14.191l18.816-82.005c4.509-19.676,22.016-33.625,42.204-33.625h211.458c20.187,0,37.694,13.948,42.213,33.625l18.807,82.005
	l20.52,14.191C456.836,279.84,464.931,295.295,464.931,311.798z"/>
<path style="fill:#5C5E70;" d="M386.959,256.254H125.051c-6.051,0-10.533-5.62-9.179-11.519l14.97-65.251
	c2.089-9.117,10.076-15.491,19.435-15.491h211.449c9.359,0,17.346,6.374,19.443,15.491l14.962,65.251
	C397.483,250.634,393.01,256.254,386.959,256.254z"/>
<path style="fill:#494B5B;" d="M359.637,410.42v5.241c0,12.73-17.667,23.05-39.461,23.05H191.821
	c-21.793,0-39.461-10.32-39.461-23.05v-5.241H359.637z"/>
<path style="fill:#34A375;" d="M54.134,393.659c-2.59-6.015-4.912-12.173-6.956-18.457c-0.036,0.009-0.072,0.009-0.108,0.027
	v-63.431c0-8.633,2.214-16.978,6.275-24.311c0,0-14.281,87.5,147.973,87.5C305.546,374.986,166.743,385.869,54.134,393.659z"/>
<g>
	<path style="fill:#5C5E70;" d="M353.326,361.622H158.674c-3.183,0-5.764-2.58-5.764-5.764v-5.954c0-3.183,2.58-5.764,5.764-5.764
		h194.652c3.183,0,5.764,2.58,5.764,5.764v5.954C359.09,359.042,356.509,361.622,353.326,361.622z"/>
	<path style="fill:#5C5E70;" d="M353.326,333.1H158.674c-3.183,0-5.764-2.58-5.764-5.764v-5.954c0-3.183,2.58-5.764,5.764-5.764
		h194.652c3.183,0,5.764,2.58,5.764,5.764v5.954C359.09,330.519,356.509,333.1,353.326,333.1z"/>
</g>
<path style="fill:#F7F7F7;" d="M476.16,386.727c-4.88,8.202-10.209,16.102-15.956,23.677c-0.24,0.021-0.481,0.021-0.721,0.021
	H52.519c-0.24,0-0.481,0-0.721-0.01c-5.747-7.575-11.065-15.485-15.955-23.688c0.888-2.487,2.32-4.723,4.148-6.562
	c3.208-3.197,7.638-5.183,12.528-5.183h406.964C467.164,374.982,473.705,379.883,476.16,386.727z"/>
<path style="fill:#797B89;" d="M375.432,212.891c2.054,6.56-5.534,11.881-11.002,7.718l-20.238-15.413l-21.232-16.17
	c-5.371-4.09-2.478-12.662,4.273-12.662h31.582c3.082,0,5.809,2.003,6.729,4.944L375.432,212.891z"/>
<path style="fill:#E5E5E5;" d="M468.595,398.68c-2.685,3.981-5.486,7.899-8.391,11.724c-0.24,0.021-0.481,0.021-0.721,0.021H52.519
	c-0.24,0-0.481,0-0.721-0.01c-2.905-3.824-5.695-7.743-8.38-11.734L468.595,398.68L468.595,398.68z"/>
<path style="fill:#494B5B;" d="M221.04,256.254h-95.989c-6.051,0-10.533-5.62-9.179-11.519l14.97-65.251
	c2.089-9.117,10.076-15.491,19.435-15.491C150.275,163.995,134.087,244.7,221.04,256.254z"/>
<path style="fill:#34A375;" d="M391.59,362.236c-10.398,0-18.857-8.459-18.857-18.857v-20.394c0-9.866,7.6-18.04,17.377-18.784
	c0.66-0.073,1.186-0.073,1.481-0.073h47.855c10.398,0,18.857,8.459,18.857,18.857v20.394c0,1.752-0.24,3.454-0.712,5.064
	c-2.245,8.129-9.683,13.794-18.146,13.794H391.59z"/>
<path style="fill:#EFC549;" d="M448.795,322.985v20.394c0,0.856-0.111,1.679-0.349,2.457c-1.062,3.977-4.691,6.893-9.001,6.893
	H391.59c-5.166,0-9.35-4.184-9.35-9.35v-20.394c0-4.976,3.882-9.048,8.795-9.317c0.174-0.031,0.365-0.031,0.555-0.031h47.855
	C444.611,313.636,448.795,317.819,448.795,322.985z"/>
<path style="fill:#FFD662;" d="M448.795,322.985v20.394c0,0.856-0.111,1.679-0.349,2.457c-0.174,0.031-0.365,0.031-0.539,0.031
	h-47.871c-5.166,0-9.349-4.183-9.349-9.349v-20.394c0-0.856,0.111-1.679,0.349-2.457c0.174-0.031,0.365-0.031,0.555-0.031h47.855
	C444.611,313.636,448.795,317.819,448.795,322.985z"/>
<path style="fill:#FCE39D;" d="M438.625,330.543h-22.973c-2.116,0-3.832-1.716-3.832-3.832v-3.958c0-2.116,1.716-3.832,3.832-3.832
	h22.973c2.116,0,3.832,1.716,3.832,3.832v3.958C442.455,328.828,440.74,330.543,438.625,330.543z"/>
<path style="fill:#34A375;" d="M72.555,362.236c-10.398,0-18.857-8.459-18.857-18.857v-20.394c0-9.866,7.599-18.04,17.377-18.784
	c0.66-0.073,1.186-0.073,1.481-0.073h47.855c10.398,0,18.857,8.459,18.857,18.857v20.394c0,1.752-0.24,3.454-0.712,5.064
	c-2.245,8.129-9.683,13.794-18.146,13.794H72.555z"/>
<path style="fill:#EFC549;" d="M129.76,322.985v20.394c0,0.856-0.111,1.679-0.349,2.457c-1.062,3.977-4.691,6.893-9.001,6.893
	H72.556c-5.166,0-9.35-4.184-9.35-9.35v-20.394c0-4.976,3.882-9.048,8.795-9.317c0.174-0.031,0.365-0.031,0.555-0.031h47.855
	C125.577,313.636,129.76,317.819,129.76,322.985z"/>
<path style="fill:#FFD662;" d="M129.76,322.985v20.394c0,0.856-0.111,1.679-0.349,2.457c-0.174,0.031-0.365,0.031-0.539,0.031
	h-47.87c-5.166,0-9.349-4.183-9.349-9.349v-20.394c0-0.856,0.111-1.679,0.349-2.457c0.174-0.031,0.365-0.031,0.555-0.031h47.855
	C125.577,313.636,129.76,317.819,129.76,322.985z"/>
<path style="fill:#FCE39D;" d="M119.59,330.543H96.617c-2.116,0-3.832-1.716-3.832-3.832v-3.958c0-2.116,1.716-3.832,3.832-3.832
	h22.973c2.116,0,3.832,1.716,3.832,3.832v3.958C123.422,328.828,121.706,330.543,119.59,330.543z"/>
<path style="fill:#E5E5E5;" d="M485.698,103.85h-56.39c-4.676,0-8.466-3.791-8.466-8.466c0-4.675,3.79-8.466,8.466-8.466h56.39
	c4.676,0,8.466,3.791,8.466,8.466C494.164,100.059,490.375,103.85,485.698,103.85z"/>
<g>
	<path style="fill:#D3D3D3;" d="M485.698,98.625h-56.39c-3.764,0-6.95-2.458-8.051-5.853c-0.266,0.823-0.415,1.7-0.415,2.612
		c0,4.675,3.79,8.466,8.467,8.466h56.39c4.676,0,8.467-3.791,8.467-8.466c0-0.912-0.148-1.789-0.415-2.612
		C492.648,96.167,489.462,98.625,485.698,98.625z"/>
	<path style="fill:#D3D3D3;" d="M485.698,38.336h-56.39c-3.764,0-6.95-2.458-8.051-5.853c-0.266,0.823-0.415,1.7-0.415,2.612
		c0,4.675,3.79,8.466,8.467,8.466h56.39c4.676,0,8.467-3.791,8.467-8.466c0-0.912-0.148-1.789-0.415-2.612
		C492.648,35.878,489.462,38.336,485.698,38.336z"/>
</g>
<path style="fill:#E5E5E5;" d="M485.698,43.56h-56.39c-4.676,0-8.466-3.791-8.466-8.466s3.79-8.466,8.466-8.466h56.39
	c4.676,0,8.466,3.791,8.466,8.466S490.375,43.56,485.698,43.56z"/>
<path style="fill:#FFD662;" d="M429.309,111.914V18.564h-50.86c-25.779,0-46.675,20.897-46.675,46.675l0,0l0,0
	c0,25.779,20.897,46.675,46.675,46.675H429.309z"/>
<path style="fill:#EFC549;" d="M332.442,57.402c-0.432,2.55-0.668,5.165-0.668,7.837l0,0c0,25.779,20.897,46.675,46.675,46.675
	h50.861V96.241h-50.861C355.343,96.241,336.17,79.447,332.442,57.402z"/>
<path style="fill:#FFD662;" d="M429.309,130.416c-5.61,0-10.159-4.548-10.159-10.159V10.221c0-5.61,4.548-10.159,10.159-10.159
	c5.61,0,10.159,4.548,10.159,10.159v110.035C439.468,125.867,434.919,130.416,429.309,130.416z"/>
<path style="fill:#EFC549;" d="M429.309,84.441c-5.61,0-10.159-4.549-10.159-10.159v45.975c0,5.61,4.549,10.159,10.159,10.159
	c5.61,0,10.159-4.549,10.159-10.159V74.281C439.468,79.891,434.919,84.441,429.309,84.441z"/>
<path style="fill:#FCE39D;" d="M401.764,45.215h-25.077c-3.751,0-6.792-3.041-6.792-6.792l0,0c0-3.751,3.041-6.792,6.792-6.792
	h25.077c3.751,0,6.792,3.041,6.792,6.792l0,0C408.556,42.174,405.515,45.215,401.764,45.215z"/>
<polygon style="fill:#FFD662;" points="201.375,16.284 112.793,16.284 62.564,102.157 103.179,102.157 68.48,179.287 175.221,87.01 
	141.064,87.01 "/>
<g>
</g>
<g>
</g>
<g>
</g>
<g>
</g>
<g>
</g>
<g>
</g>
<g>
</g>
<g>
</g>
<g>
</g>
<g>
</g>
<g>
</g>
<g>
</g>
<g>
</g>
<g>
</g>
<g>
</g>
</svg>
