<svg height="512pt" viewBox="-72 0 512 512" width="512pt" xmlns="http://www.w3.org/2000/svg"><path d="m183.65625 0c-101.269531 0-183.65625 82.238281-183.65625 183.324219 0 41.367187 29.152344 108.539062 86.644531 199.648437 42.035157 66.613282 84.664063 122.574219 85.089844 123.128906 2.835937 3.71875 7.246094 5.898438 11.921875 5.898438s9.082031-2.179688 11.921875-5.894531c.425781-.558594 43.054687-56.519531 85.089844-123.132813 57.492187-91.109375 86.644531-158.28125 86.644531-199.648437 0-101.085938-82.386719-183.324219-183.65625-183.324219zm0 0" fill="#01cab2"/><path d="m183.65625 0v512c4.675781 0 9.082031-2.179688 11.921875-5.894531.425781-.558594 43.054687-56.519531 85.089844-123.132813 57.492187-91.109375 86.644531-158.28125 86.644531-199.648437 0-101.085938-82.386719-183.324219-183.65625-183.324219zm0 0" fill="#019784"/><path d="m183.65625 61.332031c-67.382812 0-122.203125 54.726563-122.203125 121.988281 0 67.265626 54.820313 121.992188 122.203125 121.992188s122.203125-54.726562 122.203125-121.992188c0-67.261718-54.820313-121.988281-122.203125-121.988281zm0 0" fill="#00fe92"/><path d="m183.65625 61.332031v243.980469c67.382812 0 122.203125-54.726562 122.203125-121.992188 0-67.261718-54.820313-121.988281-122.203125-121.988281zm0 0" fill="#00db7f"/><path d="m148.457031 215.03125c-8.285156 0-15-6.71875-15-15v-32.097656c0-8.285156 6.714844-15 15-15 8.28125 0 15 6.714844 15 15v32.097656c0 8.28125-6.71875 15-15 15zm0 0" fill="#00db7f"/><path d="m218.855469 213.6875c-8.285157 0-15-6.71875-15-15v-32.074219c0-8.28125 6.714843-15 15-15 8.285156 0 15 6.71875 15 15v32.074219c0 8.28125-6.714844 15-15 15zm0 0" fill="#019784"/></svg>