<?xml version="1.0" encoding="iso-8859-1"?>
<!-- Generator: Adobe Illustrator 19.0.0, SVG Export Plug-In . SVG Version: 6.00 Build 0)  -->
<svg version="1.1" id="Layer_1" xmlns="http://www.w3.org/2000/svg" xmlns:xlink="http://www.w3.org/1999/xlink" x="0px" y="0px"
	 viewBox="0 0 512 512" style="enable-background:new 0 0 512 512;" xml:space="preserve">
<circle style="fill:#006775;" cx="256" cy="255.947" r="255.947"/>
<path style="fill:#055661;" d="M509.25,293.655L322.067,106.472C231.28,37.499,80.869,148.749,209.882,270.699l-84.45,123.715
	l117.275,117.275c4.467,0.208,8.829,0.311,13.296,0.311C384.6,512,490.968,417.162,509.25,293.655z"/>
<path style="fill:#EBECEC;" d="M385.846,377.17c0,12.362-9.764,22.437-21.813,22.437H139.247c-11.945,0-21.813-10.076-21.813-22.437
	V256.779c0-12.362,9.764-22.437,21.813-22.437h224.785c11.945,0,21.813,10.076,21.813,22.437V377.17z"/>
<path style="fill:#E3E3E3;" d="M385.846,377.17c0,12.362-9.764,22.437-21.813,22.437H139.247c-5.297,0-10.179-1.973-13.92-5.297
	L380.653,242.34c3.22,3.947,5.194,8.933,5.194,14.439V377.17H385.846z"/>
<g>
	<rect x="117.535" y="270.596" style="fill:#004F59;" width="268.305" height="28.357"/>
	<path style="fill:#004F59;" d="M136.338,317.649h116.963v10.283H136.338V317.649z M136.338,357.434h116.963v10.283H136.338V357.434
		z M136.338,337.49h116.963v10.283H136.338V337.49z"/>
	<circle style="fill:#004F59;" cx="330.376" cy="342.681" r="20.464"/>
</g>
<path style="fill:#FFD630;" d="M285.399,126.208c-5.817-2.493-14.75-4.778-26.384-4.882V109.9h-14.543v12.777
	c-18.698,3.843-29.5,15.478-29.5,29.916c0,13.711,11.219,23.684,29.5,30.643v31.474c-9.868-0.104-20.048-2.701-26.384-6.025
	l-4.778,17.347c5.921,3.116,18.489,6.025,30.955,6.025h0.208v2.389h14.543v-3.635c20.048-3.843,31.162-15.789,31.162-31.162
	c0-14.127-9.038-24.099-29.189-31.786c-0.727-0.311-1.351-0.519-1.973-0.831v-28.357c9.764,0.208,17.035,2.701,21.294,4.571
	l5.09-16.931v-0.107H285.399z M251.743,77.283c54.95,0,99.408,44.458,99.408,99.408c0,21.502-6.856,41.447-18.489,57.755h-23.164
	c14.75-14.75,23.892-35.214,23.892-57.755c0-45.082-36.564-81.646-81.646-81.646s-81.646,36.564-81.646,81.646
	c0,22.541,9.141,42.9,23.892,57.755h-23.268c-11.634-16.308-18.489-36.148-18.489-57.755c0-54.846,44.458-99.408,99.408-99.408
	H251.743z M259.015,189.987c4.571,3.116,6.752,6.648,6.752,11.219c0,4.571-2.285,8.31-6.752,10.7v-21.813V189.987z M244.472,159.759
	c-3.532-2.597-5.09-5.401-5.09-9.245c0-3.22,1.662-6.336,5.09-8.621v17.97V159.759z"/>
<g>
</g>
<g>
</g>
<g>
</g>
<g>
</g>
<g>
</g>
<g>
</g>
<g>
</g>
<g>
</g>
<g>
</g>
<g>
</g>
<g>
</g>
<g>
</g>
<g>
</g>
<g>
</g>
<g>
</g>
</svg>
