<?xml version="1.0" encoding="iso-8859-1"?>
<!-- Generator: Adobe Illustrator 19.0.0, SVG Export Plug-In . SVG Version: 6.00 Build 0)  -->
<svg version="1.1" id="Layer_1" xmlns="http://www.w3.org/2000/svg" xmlns:xlink="http://www.w3.org/1999/xlink" x="0px" y="0px"
	 viewBox="0 0 473.935 473.935" style="enable-background:new 0 0 473.935 473.935;" xml:space="preserve">
<circle style="fill:#B1C635;" cx="236.967" cy="236.967" r="236.967"/>
<path style="fill:#444341;" d="M209.637,372.053v100.265c8.965,1.029,18.065,1.616,27.311,1.616c8.471,0,16.831-0.46,25.074-1.328
	V372.057C262.022,357.588,209.637,357.588,209.637,372.053z"/>
<path style="fill:#524F49;" d="M282.501,375.14c0,25.538-20.688,29.972-46.23,29.972l0,0c-25.534,0-46.23-4.434-46.23-29.972
	v-45.377c0-25.541,20.696-46.237,46.23-46.237l0,0c25.541,0,46.23,20.696,46.23,46.237L282.501,375.14L282.501,375.14z"/>
<path style="fill:#77746F;" d="M215.778,174.188c0,10.466-8.479,18.948-18.945,18.948l0,0c-10.466,0-18.948-8.486-18.948-18.948
	v-46.552h37.893V174.188z"/>
<path style="fill:#E4DFD6;" d="M213.05,130.001h-32.426V97.773c0-8.958,7.255-16.213,16.209-16.213l0,0
	c8.962,0,16.217,7.255,16.217,16.213V130.001z"/>
<path style="fill:#77746F;" d="M297.547,174.188c0,10.466-8.486,18.948-18.945,18.948l0,0c-10.466,0-18.948-8.486-18.948-18.948
	v-46.552h37.893V174.188z"/>
<path style="fill:#E4DFD6;" d="M294.823,130.001h-32.434V97.773c0-8.958,7.263-16.213,16.217-16.213l0,0
	c8.954,0,16.217,7.255,16.217,16.213V130.001z"/>
<path style="fill:#585550;" d="M278.67,357.03h-83.086c-32.374,0-54.784-120.654-54.784-154.472
	c0-33.822,18.615-38.529,52.662-38.529h87.333c34.05,0,52.662,4.707,52.662,38.529C333.461,236.376,311.055,357.03,278.67,357.03z"
	/>
<path style="fill:#524F49;" d="M140.122,202.558c0-33.822,19.293-38.529,53.343-38.529h87.333c34.05,0,53.343,4.707,53.343,38.529
	c0,0-2.608,3.42-97.01,3.42S140.122,202.558,140.122,202.558z"/>
<g>
</g>
<g>
</g>
<g>
</g>
<g>
</g>
<g>
</g>
<g>
</g>
<g>
</g>
<g>
</g>
<g>
</g>
<g>
</g>
<g>
</g>
<g>
</g>
<g>
</g>
<g>
</g>
<g>
</g>
</svg>
