<svg height="512pt" viewBox="0 -31 512 512" width="512pt" xmlns="http://www.w3.org/2000/svg"><path d="m347 225v120h150c8.402344 0 15 6.597656 15 15v90h-60l-15-17.402344-15 17.402344h-347c-41.398438 0-75-33.601562-75-75v-315l196 24.300781 286 35.699219h30v90c0 8.398438-6.597656 15-15 15zm0 0" fill="#676e74"/><path d="m347 225v120h150c8.402344 0 15 6.597656 15 15v90h-60l-15-17.402344-15 17.402344h-226v-365.699219l286 35.699219h30v90c0 8.398438-6.597656 15-15 15zm0 0" fill="#474f54"/><path d="m422 345h30v105h-30zm0 0" fill="#32393f"/><path d="m422 105h30v120h-30zm0 0" fill="#32393f"/><path d="m332 210h180v150h-180zm0 0" fill="#66c0ee"/><path d="m392 270h30v30h-30zm0 0" fill="#474f54"/><path d="m482 0v62.398438c0 8.402343-6.597656 15-15 15h-392v27.601562c0 8.398438-6.597656 15-15 15-33 0-60-27-60-60 0-32.699219 26.699219-60 60-60zm0 0" fill="#474f54"/><path d="m482 0v62.398438c0 8.402343-6.597656 15-15 15h-271v-77.398438zm0 0" fill="#32393f"/><path d="m60 60h422v60h-422zm0 0" fill="#d3f3db"/><path d="m196 60h286v60h-286zm0 0" fill="#bee8c9"/><path d="m241 315.300781c0 19.5-12.597656 36-30 42.300781v31.398438h-30v-31.398438c-17.402344-6.300781-30-22.105468-30-41.601562h30c0 8.398438 6.597656 14.300781 15 14.300781s15-6.601562 15-15c0-8.402343-6.597656-15-15-15-24.902344 0-45-20.101562-45-45 0-19.5 12.597656-36 30-42.300781v-33h30v33c17.402344 6.300781 30 22.5 30 42h-30c0-8.402344-6.597656-14.699219-15-14.699219s-15 6.597657-15 15c0 8.398438 6.597656 15 15 15 24.902344 0 45 20.101563 45 45zm0 0" fill="#ffda2d"/><g fill="#fdbf00"><path d="m241 315.300781c0 19.5-12.597656 36-30 42.300781v31.398438h-15v-58.699219c8.402344 0 15-6.601562 15-15 0-8.402343-6.597656-15-15-15v-30c24.902344 0 45 20.101563 45 45zm0 0"/><path d="m196 240.300781v-60.300781h15v33c17.402344 6.300781 30 22.5 30 42h-30c0-8.402344-6.597656-14.699219-15-14.699219zm0 0"/></g></svg>