<?xml version="1.0" encoding="iso-8859-1"?>
<!-- Generator: Adobe Illustrator 19.0.0, SVG Export Plug-In . SVG Version: 6.00 Build 0)  -->
<svg version="1.1" id="Capa_1" xmlns="http://www.w3.org/2000/svg" xmlns:xlink="http://www.w3.org/1999/xlink" x="0px" y="0px"
	 viewBox="0 0 512 512" style="enable-background:new 0 0 512 512;" xml:space="preserve">
<circle style="fill:#3997EE;" cx="256" cy="262.21" r="249.79"/>
<path style="fill:#DDDDDD;" d="M239.085,48.185V18.946C239.085,8.483,230.602,0,220.138,0H157.14
	c-10.464,0-18.946,8.483-18.946,18.946v29.239C138.194,48.185,239.085,48.185,239.085,48.185z"/>
<path style="fill:#CECCCA;" d="M211.14,0h-54c-10.464,0-18.946,8.482-18.946,18.946v29.239h54V18.946
	C192.194,8.482,200.676,0,211.14,0z"/>
<path style="fill:#EFEFEF;" d="M300.823,512c7.486,0,13.612-6.125,13.612-13.612V54.991c0-7.487-6.125-13.612-13.612-13.612H76.455
	c-7.487,0-13.612,6.125-13.612,13.612v365.592c45.135,54.974,113.276,90.339,189.713,91.374V512H300.823z"/>
<path style="fill:#DDDDDD;" d="M116.843,54.991c0-7.487,6.125-13.612,13.612-13.612h-54c-7.487,0-13.612,6.125-13.612,13.612
	v365.592c15.489,18.865,33.687,35.419,54,49.071V54.991z"/>
<path style="fill:#45DB73;" d="M62.843,420.583c8.208,9.998,17.186,19.337,26.828,27.949h224.764V104.847H62.843V420.583z"/>
<path style="fill:#32CC65;" d="M116.843,104.847h-54v315.736c7.846,9.557,16.782,18.976,26.828,27.949h27.172V104.847z"/>
<g>
	<path style="fill:#DDDDDD;" d="M314.435,470.699h-196.03c9.575,6.332,19.605,12.028,30.042,17.015h165.988
		c4.699,0,8.508-3.809,8.508-8.508C322.943,474.508,319.134,470.699,314.435,470.699z"/>
	<path style="fill:#DDDDDD;" d="M314.435,81.861H62.843c-4.698,0-8.507-3.808-8.507-8.507s3.809-8.507,8.507-8.507h251.592
		c4.699,0,8.508,3.808,8.508,8.507C322.943,78.052,319.134,81.861,314.435,81.861z"/>
</g>
<path style="fill:#CECCCA;" d="M108.836,73.354c0-4.699,3.809-8.508,8.507-8.508h-54.5c-4.698,0-8.507,3.809-8.507,8.508
	c0,4.699,3.809,8.507,8.507,8.507h54.5C112.645,81.861,108.836,78.053,108.836,73.354z"/>
<circle style="fill:#647892;" cx="355.11" cy="104.85" r="102.54"/>
<path style="fill:#4D6682;" d="M319.35,125.493C296.368,85.688,303.11,36.88,332.688,4.766
	c-67.302,15.099-101.009,91.363-66.376,151.349c28.315,49.043,91.025,65.846,140.067,37.531c9.237-5.333,17.33-11.887,24.193-19.34
	C387.972,183.864,342.331,165.299,319.35,125.493z"/>
<path style="fill:#ABE84B;" d="M428.329,60.648c2.063,1.26,3.251,3.581,3.049,5.958c-2.754,32.417-21.547,62.33-52.582,77.645
	c-12.119,5.981-24.943,9.162-37.749,9.796c-39.439,1.952-63.21-44.488-38.081-74.397c8.159-9.712,18.411-17.919,30.53-23.899
	C364.53,40.435,400.191,43.475,428.329,60.648z"/>
<path style="fill:#95DB1B;" d="M312.364,101.59c8.159-9.712,18.411-17.919,30.53-23.899c28.148-13.89,60.101-12.68,86.796,0.477
	c0.788-3.805,1.357-7.665,1.688-11.563c0.202-2.377-0.986-4.698-3.049-5.958c-28.137-17.173-63.798-20.213-94.833-4.898
	c-12.119,5.98-22.371,14.187-30.53,23.899c-14.742,17.547-12.649,40.78-0.441,56.596
	C300.777,124.522,303.579,112.047,312.364,101.59z"/>
<path style="fill:#8DC610;" d="M288.099,174.053c-4.62-0.721-7.78-5.051-7.059-9.671c5.982-38.301,41.871-79.186,105.527-94.478
	c4.545-1.088,9.117,1.709,10.21,6.255c1.092,4.546-1.708,9.118-6.254,10.211c-42.047,10.1-86.108,38.077-92.752,80.625
	C297.043,171.651,292.678,174.771,288.099,174.053z"/>
<path style="fill:#23B658;" d="M250.807,261.966H195.81c-1.429,0-2.452-1.381-2.035-2.749l27.309-89.462
	c0.689-2.258-2.262-3.79-3.713-1.928l-92.579,118.859c-1.088,1.397-0.093,3.435,1.678,3.435h54.996c1.429,0,2.452,1.381,2.035,2.749
	l-27.309,89.462c-0.689,2.258,2.263,3.79,3.713,1.928l92.58-118.86C253.573,264.003,252.578,261.966,250.807,261.966z"/>
<g>
	<path style="fill:#1FAA4D;" d="M157.408,286.686l62.155-118.859c0.137-0.261,0.294-0.449,0.461-0.584
		c-0.832-0.428-1.928-0.344-2.651,0.584l-92.579,118.859c-1.088,1.397-0.093,3.434,1.678,3.434h32.063
		C157.346,290.12,156.677,288.083,157.408,286.686z"/>
	<path style="fill:#1FAA4D;" d="M181.468,290.12c1.429,0,2.452,1.382,2.035,2.749l-27.31,89.462
		c-0.495,1.621,0.888,2.861,2.244,2.746l1.47-0.818l45.235-88.221c1.387-2.704-0.577-5.918-3.616-5.918H181.468z"/>
</g>
<g>
</g>
<g>
</g>
<g>
</g>
<g>
</g>
<g>
</g>
<g>
</g>
<g>
</g>
<g>
</g>
<g>
</g>
<g>
</g>
<g>
</g>
<g>
</g>
<g>
</g>
<g>
</g>
<g>
</g>
</svg>
