<svg viewBox="0 0 512 512.00026" xmlns="http://www.w3.org/2000/svg"><path d="m511.035156 256.484375c0 141.117187-114.398437 255.515625-255.515625 255.515625-141.121093 0-255.519531-114.398438-255.519531-255.515625 0-141.121094 114.398438-255.519531 255.519531-255.519531 141.117188 0 255.515625 114.398437 255.515625 255.519531zm0 0" fill="#ff7591"/><path d="m232.054688 430.761719h46.929687v61.007812h-46.929687zm0 0" fill="#3b3b3b"/><path d="m502.878906 87.5v233.238281c-4.902344 18.980469-11.953125 37.097657-20.859375 54.097657-8.300781 15.871093-18.230469 30.765624-29.554687 44.449218-6.050782 7.308594-12.496094 14.277344-19.304688 20.855469h-355.285156c-6.808594-6.578125-13.253906-13.546875-19.304688-20.855469-11.324218-13.683594-21.253906-28.578125-29.554687-44.449218-8.90625-17-15.957031-35.117188-20.859375-54.097657v-233.238281c0-9.996094 8.101562-18.097656 18.097656-18.097656h458.527344c9.996094 0 18.097656 8.101562 18.097656 18.097656zm0 0" fill="#4a4a4a"/><path d="m482.019531 90.261719v284.574219c-8.300781 15.871093-18.230469 30.765624-29.554687 44.449218h-393.894532c-11.324218-13.683594-21.253906-28.578125-29.554687-44.449218v-284.574219zm0 0" fill="#fff"/><path d="m373.179688 483.351562c-35.21875 18.304688-75.226563 28.648438-117.660157 28.648438-42.4375 0-82.445312-10.34375-117.664062-28.648438 28.398437-5.382812 70.585937-8.792968 117.664062-8.792968 47.085938 0 89.261719 3.410156 117.660157 8.792968zm0 0" fill="#4a4a4a"/><path d="m178.53125 216.089844h80.820312v180.964844h-80.820312zm0 0" fill="#7eeef6"/><path d="m281.40625 134.742188h80.820312v262.3125h-80.820312zm0 0" fill="#ffd861"/><path d="m384.285156 12.4375h80.820313v384.617188h-80.820313zm0 0" fill="#66ccb5"/><path d="m203.132812 272.71875h105.773438l.007812.007812v134.207032h-258.054687v-134.214844zm0 0" fill="#66ccb5"/><g fill="#1bb78f"><path d="m87.976562 272.71875c0 20.496094-16.617187 37.113281-37.117187 37.113281v-37.105469l.007813-.007812zm0 0"/><path d="m87.976562 406.941406c0-20.5-16.617187-37.117187-37.117187-37.117187v37.109375l.007813.007812zm0 0"/><path d="m308.914062 369.824219c-20.5 0-37.113281 16.617187-37.113281 37.117187h37.105469l.007812-.007812zm0 0"/><path d="m233.53125 339.828125c0 29.625-24.019531 53.644531-53.644531 53.644531-29.628907 0-53.648438-24.019531-53.648438-53.644531 0-29.628906 24.019531-53.648437 53.648438-53.648437 29.625 0 53.644531 24.019531 53.644531 53.648437zm0 0"/></g><path d="m155.324219 368.8125c0-3.117188 2.523437-5.644531 5.640625-5.644531h23.347656c4.882812 0 8.851562-3.96875 8.851562-8.847657 0-4.882812-3.96875-8.851562-8.851562-8.851562h-8.855469c-11.101562 0-20.132812-9.03125-20.132812-20.132812 0-11.101563 9.03125-20.136719 20.132812-20.136719h23.347657c3.117187 0 5.644531 2.527343 5.644531 5.644531s-2.527344 5.640625-5.644531 5.640625h-23.347657c-4.878906 0-8.851562 3.96875-8.851562 8.851563 0 4.878906 3.972656 8.851562 8.851562 8.851562h8.855469c11.101562 0 20.136719 9.03125 20.136719 20.132812 0 11.101563-9.035157 20.132813-20.136719 20.132813h-23.347656c-3.117188 0-5.640625-2.527344-5.640625-5.640625zm0 0" fill="#66ccb5"/><path d="m174.242188 380.796875v-81.941406c0-3.117188 2.527343-5.644531 5.644531-5.644531 3.113281 0 5.640625 2.527343 5.640625 5.644531v81.941406c0 3.117187-2.527344 5.644531-5.640625 5.644531-3.117188 0-5.644531-2.527344-5.644531-5.644531zm0 0" fill="#66ccb5"/><path d="m308.914062 309.832031c-20.5 0-37.113281-16.617187-37.113281-37.113281h37.105469l.007812.007812zm0 0" fill="#1bb78f"/><path d="m82.753906 323.488281c0-3.117187 2.527344-5.644531 5.644532-5.644531h14.289062c3.117188 0 5.644531 2.527344 5.644531 5.644531 0 3.113281-2.527343 5.640625-5.644531 5.640625h-14.289062c-3.117188 0-5.644532-2.527344-5.644532-5.640625zm0 0" fill="#1bb78f"/><path d="m82.753906 340.789062c0-3.117187 2.527344-5.640624 5.644532-5.640624h14.289062c3.117188 0 5.644531 2.523437 5.644531 5.640624 0 3.117188-2.527343 5.640626-5.644531 5.640626h-14.289062c-3.117188 0-5.644532-2.523438-5.644532-5.640626zm0 0" fill="#1bb78f"/><path d="m168.730469 71.382812c-3.554688 3.558594-7.09375 4.566407-9.667969 4.710938-10.609375.613281-17.160156-11.710938-19.375-15.941406-16.277344-28.289063-35.675781-44.671875-56.105469-47.382813-15.246093-2.023437-30.683593 3.902344-43.46875 16.6875-2.417969 2.417969-6.335937 2.417969-8.75 0-2.417969-2.417969-2.417969-6.335937 0-8.75 15.570313-15.570312 34.695313-22.746093 53.847657-20.207031 17.027343 2.261719 42.171874 13.394531 65.265624 53.589844.039063.070312.078126.140625.113282.214844 4.8125 9.183593 7.730468 9.441406 7.757812 9.4375 1.265625-.070313 3.996094-3.644532 5.21875-6.824219 1.226563-3.1875 4.808594-4.78125 7.996094-3.554688 3.191406 1.226563 4.78125 4.808594 3.554688 7.996094-.128907.339844-1.328126 3.382813-3.511719 6.546875-.949219 1.367188-1.914063 2.515625-2.875 3.476562zm-23.621094-14.210937.007813-.003906zm0 0" fill="#ffd861"/><path d="m200.042969 189.386719c-12.300781 12.300781-32.238281 12.300781-44.535157 0l-124.4375-124.4375c-12.296874-12.296875-12.296874-32.234375 0-44.535157 12.296876-12.296874 32.238282-12.296874 44.535157 0l124.4375 124.4375c12.296875 12.296876 12.296875 32.238282 0 44.535157zm0 0" fill="#35546d"/><path d="m201.5 182.089844 12.445312 12.445312c2.417969 2.417969 2.414063 6.332032 0 8.75-2.421874 2.417969-6.332031 2.417969-8.753906 0l-12.441406-12.445312c-2.414062-2.414063-2.417969-6.328125 0-8.75 2.417969-2.414063 6.335938-2.414063 8.75 0zm0 0" fill="#efd67f"/><path d="m213.167969 193.757812.777343.777344c2.417969 2.417969 2.414063 6.332032 0 8.75-2.421874 2.417969-6.332031 2.417969-8.753906 0l-.773437-.777344c-2.414063-2.414062-2.421875-6.328124 0-8.75 2.414062-2.414062 6.335937-2.414062 8.75 0zm0 0" fill="#4c4c4c"/><path d="m175.425781 169.46875-124.4375-124.4375c-8.714843-8.71875-11.246093-21.269531-7.605469-32.222656-4.5 1.496094-8.730468 4.023437-12.3125 7.605468-12.296874 12.296876-12.296874 32.238282 0 44.535157l124.4375 124.4375c12.296876 12.296875 32.234376 12.296875 44.535157 0 3.582031-3.582031 6.109375-7.8125 7.605469-12.3125-10.953126 3.640625-23.503907 1.109375-32.222657-7.605469zm0 0" fill="#264356"/><path d="m63.371094 97.253906 44.535156-44.535156 8.75 8.75-44.535156 44.53125zm0 0" fill="#ffd861"/></svg>