<?xml version="1.0" encoding="iso-8859-1"?>
<!-- Generator: Adobe Illustrator 19.0.0, SVG Export Plug-In . SVG Version: 6.00 Build 0)  -->
<svg version="1.1" id="Layer_1" xmlns="http://www.w3.org/2000/svg" xmlns:xlink="http://www.w3.org/1999/xlink" x="0px" y="0px"
	 viewBox="0 0 512 512" style="enable-background:new 0 0 512 512;" xml:space="preserve">
<path style="fill:#4DB5FF;" d="M361,447.999V481c0,8.399-6.599,15-15,15h-60c-8.401,0-15-6.601-15-15v-15h-60v15
	c0,8.399-6.599,15-15,15h-60c-8.401,0-15-6.601-15-15v-33.3c-21.301-11.101-40.499-26.7-55.201-45.6
	C55.3,388.299,41.201,377.5,25.3,370.6C14.2,365.799,0,355,0,331v-27.001c0-22.2,16.3-41.1,36.7-46.5
	c2.401-8.401,5.7-16.5,9.6-24.901l-41.8-44.7c-6-5.7-6-15.3,0-21c32.999-33.3,84.7-40.199,124.6-16.5
	c13.2-5.7,26.699-9.901,40.199-12.299l86.7,4.799l85.8,4.501c60.901,22.8,103.601,75.599,109.3,137.399
	C457.7,352.899,421.3,417.4,361,447.999z"/>
<g>
	<path style="fill:#4D97FF;" d="M361,447.999V481c0,8.399-6.599,15-15,15h-60c-8.401,0-15-6.601-15-15v-15h-15V142.899l85.8,4.501
		c60.901,22.8,103.601,75.599,109.3,137.399C457.7,352.899,421.3,417.4,361,447.999z"/>
	<path style="fill:#4D97FF;" d="M437,316c-8.291,0-15-6.709-15-15s6.709-15,15-15c24.814,0,45-20.186,45-45c0-8.291,6.709-15,15-15
		s15,6.709,15,15C512,282.353,478.353,316,437,316z"/>
</g>
<g>
	<circle style="fill:#5C5F66;" cx="136" cy="271" r="15"/>
	<path style="fill:#5C5F66;" d="M309.555,226H196c-8.291,0-15-6.709-15-15s6.709-15,15-15h113.555c8.291,0,15,6.709,15,15
		S317.846,226,309.555,226z"/>
</g>
<path style="fill:#53565C;" d="M309.555,196H256v30h53.555c8.291,0,15-6.709,15-15S317.846,196,309.555,196z"/>
<path style="fill:#FCB33B;" d="M256,226c-57.891,0-105-47.109-105-105S198.109,16,256,16s105,47.109,105,105S313.891,226,256,226z"
	/>
<path style="fill:#F69838;" d="M361,121c0-57.891-47.109-105-105-105v210C313.891,226,361,178.891,361,121z"/>
<path style="fill:#FFDE33;" d="M256,46c-41.353,0-75,33.647-75,75s33.647,75,75,75s75-33.647,75-75S297.353,46,256,46z"/>
<path style="fill:#FFBC33;" d="M331,121c0-41.353-33.647-75-75-75v150C297.353,196,331,162.353,331,121z"/>
<path style="fill:#FCB33B;" d="M286,136h-30c-8.291,0-15-6.709-15-15V91c0-8.291,6.709-15,15-15c8.291,0,15,6.709,15,15v15h15
	c8.291,0,15,6.709,15,15S294.291,136,286,136z"/>
<path style="fill:#F69838;" d="M286,136c8.291,0,15-6.709,15-15s-6.709-15-15-15h-15V91c0-8.291-6.709-15-15-15v60H286z"/>
<g>
</g>
<g>
</g>
<g>
</g>
<g>
</g>
<g>
</g>
<g>
</g>
<g>
</g>
<g>
</g>
<g>
</g>
<g>
</g>
<g>
</g>
<g>
</g>
<g>
</g>
<g>
</g>
<g>
</g>
</svg>
